<svg xmlns="http://www.w3.org/2000/svg" width="26" height="12" fill="#fff"><path d="m25.99,11.42l-1.19.57c-.08.04-.26-.06-.28-.75-.47.56-1.36,1.1-2.11.43-.2-.18-.27-.48-.27-.83v-1.36c0-.41-.08-.79-.54-.55-.06.03-.09-.09-.05-.11l1.16-.54c.09-.04.16.07.16.09v2.06c.02.94.5,1.01.75,1.01.44,0,.77-.28.9-.41v-1.56c-.02-.29,0-.81-.54-.55-.05.02-.1-.09-.05-.11l1.15-.54c.09-.04.17.07.17.09v2.46c-.03.82.44.54.68.46.09-.03.08.09.06.1Z"/><path d="m21.2,8.56c.08.08.09.3.02.41-.1.16-.25.24-.49.18-.17-.05-.31-.33-.54-.34-.19,0-.42.24-.58.41v2.02c0,.4.07.66.85.65.05,0,.06.11,0,.11-1.01-.02-1.24-.04-2.14,0-.05,0-.04-.11,0-.11.53,0,.51-.26.52-.65v-1.79c.03-.85-.49-.54-.78-.44-.03.01-.09-.08-.06-.1l1.24-.6c.25-.13.35.49.37.71.99-1.21,1.48-.58,1.59-.47Z"/><path d="m18.06,11.54c-.24.11-.94.45-.94.45-.12.06-.41-.03-.5-.57-.45.31-.88.72-1.55.53-.4-.11-.57-.61-.33-.98s1.19-.58,1.86-.86c0,0,0-.36,0-.82-.02-1.12-.71-.8-.79-.72-.43.4-.09,1.09-.74,1.09-.13,0-.36-.03-.39-.32-.06-.61,1.53-1.14,1.97-1.04.67.15.71.65.71.98v1.65c0,.81.55.55.69.5.07-.03.11.07.04.1Zm-1.47-.27v-1s-.61.26-.75.32c-.57.26-.3.74-.2.83.09.09.4.28.95-.15Z"/><path d="m14.23,12c-.81-.02-.98-.02-1.81,0-.05,0-.04-.11,0-.11.55.02.52-.39.52-.64v-1.4c0-1.32-1.07-1.19-1.74-.6v2c0,.53.11.64.52.64.04,0,.05.11,0,.11-.8-.02-.95-.03-1.81,0-.05,0-.04-.11,0-.11.52.01.51-.28.52-.64v-1.78c0-.56-.14-.73-.76-.44-.07.03-.09-.09-.06-.1l1.22-.6c.24-.12.36.49.36.74.61-.74,1.3-.87,1.78-.72s.73.57.72,1.11v1.8c-.01.68.28.62.52.64.05,0,.03.11,0,.11Z"/><path d="m9.57,11.54c-.24.11-.94.45-.94.45-.12.06-.41-.03-.5-.57-.45.31-.88.72-1.55.53-.4-.11-.57-.61-.33-.98s1.19-.58,1.86-.86c0,0,0-.36,0-.82-.02-1.12-.71-.8-.79-.72-.43.4-.09,1.09-.74,1.09-.13,0-.36-.03-.39-.32-.06-.61,1.53-1.14,1.97-1.04.67.15.71.65.71.98v1.65c0,.81.55.55.69.5.07-.03.11.07.04.1Zm-1.47-.27v-1s-.61.26-.75.32c-.57.26-.3.74-.2.83.09.09.4.28.95-.15Z"/><path d="m6.01,11.99s-.95-.01-1.45,0c-.16,0-.29-.08-.45-.27l-2.19-2.87-.24.25v2.11c0,.51.04.66.72.66.05,0,.05.12,0,.11-1.11-.03-1.4-.02-2.38,0-.04,0-.04-.11,0-.11.41,0,.74.03.74-.66v-4.44c0-.57-.12-.66-.73-.66-.04,0-.04-.12,0-.11,1.07.03,1.42.04,2.37,0,.04,0,.04.11,0,.11-.43.02-.73-.03-.72.68v2.02l1.88-1.9c.55-.59.24-.8-.29-.8-.03,0-.03-.12,0-.11,1.04.03,1.36.05,2.37,0,.05,0,.04.11,0,.11-.29,0-1.09.12-1.84.86l-1.23,1.23s2.18,2.88,2.39,3.13c.5.59.78.54,1.04.54.04,0,.04.11,0,.11Z"/><path d="m1,3l-1,3,9-3,1-3L1,3Z"/></svg>