<svg width="26" height="12" fill="#fff" xmlns="http://www.w3.org/2000/svg"><path d="M0 6H2.46V6.26C1.53 6.44 1.61 6 1.61 8.8C1.94 8.71 2.04 8.64 2.99 7.67C4.27 6.38 4.27 6.35 3.42 6.26V6H5.66V6.26C4.65 6.4 4.87 6.26 2.52 8.58C5.25 11.9 5.32 11.68 5.89 11.75V12.01H4.41C1.78 8.98 2.03 9.09 1.59 9.07C1.59 12.01 1.51 11.57 2.44 11.76V12.02H0V11.76C0.91 11.58 0.83 12.02 0.83 9.02C0.83 6.33 0.91 6.46 0 6.28V6.02V6Z"/><path d="M8.79009 12C8.60009 11.99 8.30009 11.92 8.18009 11.45C8.18009 11.45 7.41009 12 7.14009 12C6.53009 12 6.09009 11.49 6.09009 10.94C6.09009 10.52 6.32009 10.24 6.80009 10.08C7.33009 9.90001 7.98009 9.67001 8.17009 9.52001V9.35001C8.18009 8.56001 7.49009 8.09001 7.00009 8.58001C6.89009 8.69001 6.85009 8.89001 6.77009 9.14001C6.67009 9.42001 6.37009 9.40001 6.17009 9.09001C6.05009 8.91001 6.25009 8.73001 6.43009 8.61001C6.68009 8.43001 7.18009 8.11001 7.67009 8.01001C8.54009 8.01001 8.84009 8.68001 8.84009 9.25001V10.92C8.84009 11.32 8.99009 11.58 9.45009 11.34L9.54009 11.58L8.81009 12.01L8.79009 12ZM8.16009 9.81001C7.00009 10.34 6.70009 10.39 6.88009 11.1C6.96009 11.41 7.58009 11.7 8.16009 11.16V9.81001Z"/><path d="M17.3899 12C17.1999 11.99 16.8999 11.92 16.7799 11.45C16.7799 11.45 16.0099 12 15.7399 12C15.1299 12 14.6899 11.49 14.6899 10.94C14.6899 10.52 14.9199 10.24 15.3999 10.08C15.9299 9.90001 16.5799 9.67001 16.7699 9.52001V9.35001C16.7799 8.56001 16.0899 8.09001 15.5999 8.58001C15.4899 8.69001 15.4499 8.89001 15.3699 9.14001C15.2699 9.42001 14.9699 9.40001 14.7699 9.09001C14.6499 8.91001 14.8499 8.73001 15.0299 8.61001C15.2799 8.43001 15.7799 8.11001 16.2699 8.01001C17.1399 8.01001 17.4399 8.68001 17.4399 9.25001V10.92C17.4399 11.32 17.5899 11.58 18.0499 11.34L18.1399 11.58L17.4099 12.01L17.3899 12ZM16.7599 9.81001C15.5999 10.34 15.2999 10.39 15.4799 11.1C15.5599 11.41 16.1799 11.7 16.7599 11.16V9.81001Z"/><path d="M12.3901 12V11.75C13.0501 11.67 12.9501 11.71 12.9501 9.58C12.9501 8.77 12.4001 8.02 11.1701 9.01C11.1701 11.86 11.0201 11.65 11.7401 11.75V12H9.84009V11.75C10.5101 11.64 10.4901 11.77 10.4901 10.24C10.4901 8.58 10.5101 8.68 9.94009 8.58V8.35C9.94009 8.35 10.6301 8.25 11.1701 8V8.7C11.9601 8.11 12.2401 8.03 12.5001 8.03C13.2101 8.03 13.6501 8.53 13.6501 9.4C13.6501 12 13.5601 11.6 14.2101 11.75V12H12.3901Z"/><path d="M20.4699 12H18.4399V11.75C19.1299 11.65 19.0399 11.72 19.0399 10.21C19.0399 8.56 19.1499 8.7 18.5099 8.58V8.36C18.5099 8.36 19.2399 8.24 19.7499 8V8.97C20.0599 8.51 20.4299 8.03 20.8699 8.03C21.1999 8.03 21.5999 8.35 21.2499 8.78C21.0399 9.03 20.9299 8.98 20.8499 8.92C20.7199 8.79 20.3099 8.31 19.7499 9.42C19.7199 11.76 19.6299 11.68 20.4699 11.75V12Z"/><path d="M26 11.69C25.52 11.74 24.66 12 24.66 12V11.33C24.19 11.72 23.8 12 23.32 12C22.74 12 22.2299 11.65 22.2299 10.69C22.2299 8.26998 22.33 8.49998 21.7 8.37998V8.14998C22.08 8.12998 22.95 7.98998 22.95 7.98998C22.91 8.26998 22.92 10.16 22.92 10.45C22.92 11.85 24.25 11.46 24.66 11.02C24.66 8.30998 24.8299 8.48998 23.9799 8.36998V8.13998C24.5399 8.10998 25.35 7.97998 25.35 7.97998C25.35 11.65 25.17 11.4 26 11.43"/><path d="M1 3L0 6L9 3L10 0L1 3Z"/></svg>