<svg width="25" height="13" fill="#fff" xmlns="http://www.w3.org/2000/svg"><path d="M1 3L0 6L9 3L10 0L1 3Z" /><path d="M0 6H2.54V6.27C1.8 6.34 1.67 6.4 1.67 7.25V8.89C1.86 8.87 2.08 8.72 2.35 8.45C2.88 7.95 3.52 7.3 3.96 6.8C4.25 6.48 4.22 6.35 3.81 6.3L3.54 6.27V6H5.85V6.27C5.14 6.36 4.89 6.4 4.25 7.06C3.96 7.34 3.22 8.06 2.61 8.66C3.33 9.52 4.39 10.73 4.88 11.26C5.37 11.78 5.49 11.86 6.08 11.93V12.2H4.56C3.83 11.37 3.06 10.45 2.19 9.44C1.97 9.17 1.81 9.15 1.66 9.16V10.97C1.66 11.8 1.75 11.86 2.53 11.93V12.2H0V11.93C0.78 11.86 0.86 11.8 0.86 10.97V7.26C0.86 6.4 0.79 6.34 0 6.28V6.01V6Z" /><path d="M8.67002 12.18C8.55002 12.18 8.36002 12.11 8.28002 12.02C8.17002 11.91 8.12002 11.8 8.08002 11.65C7.75002 11.87 7.35002 12.18 7.09002 12.18C6.50002 12.18 6.08002 11.69 6.08002 11.16C6.08002 10.76 6.30002 10.49 6.76002 10.34C7.26002 10.17 7.88002 9.95 8.06002 9.8V9.63C8.06002 9.04 7.76002 8.71 7.33002 8.71C7.14002 8.71 7.03002 8.8 6.94002 8.9C6.85002 9.02 6.79002 9.2 6.72002 9.44C6.68002 9.57 6.60002 9.63 6.48002 9.63C6.32002 9.63 6.12002 9.46 6.12002 9.27C6.12002 9.15 6.23002 9.06 6.39002 8.94C6.63002 8.77 7.11002 8.46 7.58002 8.36C7.83002 8.36 8.08002 8.43 8.27002 8.58C8.56002 8.83 8.69002 9.11 8.69002 9.54V11.13C8.69002 11.51 8.83002 11.63 8.98002 11.63C9.08002 11.63 9.19002 11.59 9.28002 11.54L9.36002 11.77L8.66002 12.18H8.67002ZM8.07002 10.09C7.89002 10.18 7.49002 10.35 7.30002 10.44C6.99002 10.58 6.80002 10.74 6.80002 11.04C6.80002 11.48 7.13002 11.68 7.39002 11.68C7.60002 11.68 7.90002 11.55 8.07002 11.38V10.09Z" /><path d="M12.06 12.18V11.94C12.55 11.89 12.6 11.83 12.6 11.26V9.87C12.6 9.28 12.39 8.89 11.83 8.89C11.48 8.89 11.16 9.09 10.9 9.33V11.3C10.9 11.88 10.95 11.9 11.45 11.95V12.19H9.63V11.95C10.19 11.89 10.24 11.86 10.24 11.3V9.57C10.24 9.02 10.18 9 9.73 8.92V8.7C10.14 8.63 10.55 8.52 10.91 8.36V9.02C11.08 8.9 11.26 8.78 11.48 8.63C11.72 8.48 11.93 8.38 12.18 8.38C12.85 8.38 13.27 8.88 13.27 9.69V11.29C13.27 11.86 13.32 11.89 13.81 11.94V12.18H12.07H12.06Z" /><path d="M16.64 12.18C16.52 12.18 16.33 12.11 16.25 12.02C16.14 11.91 16.09 11.8 16.05 11.65C15.72 11.87 15.32 12.18 15.06 12.18C14.47 12.18 14.05 11.69 14.05 11.16C14.05 10.76 14.27 10.49 14.73 10.34C15.23 10.17 15.85 9.95 16.03 9.8V9.63C16.03 9.04 15.73 8.71 15.3 8.71C15.11 8.71 15 8.8 14.91 8.9C14.82 9.02 14.76 9.2 14.69 9.44C14.65 9.57 14.57 9.63 14.45 9.63C14.29 9.63 14.09 9.46 14.09 9.27C14.09 9.15 14.2 9.06 14.36 8.94C14.6 8.77 15.08 8.46 15.55 8.36C15.8 8.36 16.05 8.43 16.24 8.58C16.53 8.83 16.66 9.11 16.66 9.54V11.13C16.66 11.51 16.8 11.63 16.95 11.63C17.05 11.63 17.16 11.59 17.25 11.54L17.33 11.77L16.63 12.18H16.64ZM16.04 10.09C15.86 10.18 15.46 10.35 15.27 10.44C14.96 10.58 14.77 10.74 14.77 11.04C14.77 11.48 15.1 11.68 15.36 11.68C15.57 11.68 15.87 11.55 16.04 11.38V10.09Z" /><path d="M19.46 12.18H17.52V11.94C18.05 11.89 18.1 11.85 18.1 11.3V9.55C18.1 8.99 18.07 8.97 17.58 8.91V8.7C17.99 8.63 18.37 8.53 18.77 8.36V9.29C19.07 8.85 19.42 8.39 19.84 8.39C20.15 8.39 20.33 8.58 20.33 8.79C20.33 8.98 20.2 9.17 20.04 9.25C19.96 9.3 19.89 9.29 19.82 9.23C19.69 9.1 19.59 9.02 19.44 9.02C19.26 9.02 18.95 9.28 18.77 9.71V11.29C18.77 11.84 18.81 11.89 19.46 11.94V12.18Z" /><path d="M24.68 11.89C24.28 11.95 23.83 12.06 23.4 12.18V11.54C22.95 11.92 22.58 12.18 22.12 12.18C21.56 12.18 21.08 11.84 21.08 10.93V9.31C21.08 8.86 21.01 8.81 20.8 8.77L20.57 8.73V8.51C20.93 8.49 21.48 8.41 21.76 8.36C21.74 8.63 21.74 9.03 21.74 9.58V10.71C21.74 11.44 22.12 11.65 22.5 11.65C22.81 11.65 23.12 11.52 23.4 11.25V9.31C23.4 8.86 23.3 8.8 23.02 8.76L22.75 8.73V8.51C23.28 8.49 23.87 8.39 24.06 8.36V11.15C24.06 11.57 24.13 11.63 24.44 11.64H24.67V11.88L24.68 11.89Z" /></svg>