<svg width="26" height="12" fill="#fff" xmlns="http://www.w3.org/2000/svg"><path d="M1 3L0 6L9 3L10 0L1 3Z"/><path d="M0 6H2.46V6.26C1.53 6.44 1.61 6 1.61 8.8C1.94 8.71 2.04 8.64 2.99 7.67C4.27 6.38 4.27 6.35 3.42 6.26V6H5.66V6.26C4.65 6.4 4.87 6.26 2.52 8.58C5.25 11.9 5.32 11.68 5.89 11.75V12.01H4.41C1.78 8.98 2.03 9.09 1.59 9.07C1.59 12.01 1.51 11.57 2.44 11.76V12.02H0V11.76C0.91 11.58 0.83 12.02 0.83 9.02C0.83 6.33 0.91 6.46 0 6.28V6.02V6Z"/><path d="M8.77007 12C8.58007 11.99 8.28007 11.92 8.16007 11.45C8.16007 11.45 7.39007 12 7.12007 12C6.51007 12 6.07007 11.49 6.07007 10.94C6.07007 10.52 6.30007 10.24 6.78007 10.08C7.31007 9.90001 7.96007 9.67001 8.15007 9.52001V9.35001C8.16007 8.56001 7.47007 8.09001 6.98007 8.58001C6.87007 8.69001 6.83007 8.89001 6.75007 9.14001C6.65007 9.42001 6.35007 9.40001 6.15007 9.09001C6.03007 8.91001 6.23007 8.73001 6.41007 8.61001C6.66007 8.43001 7.16007 8.11001 7.65007 8.01001C8.52007 8.01001 8.82007 8.68001 8.82007 9.25001V10.92C8.82007 11.32 8.97007 11.58 9.43007 11.34L9.52007 11.58L8.79007 12.01L8.77007 12ZM8.14007 9.81001C6.98007 10.34 6.68007 10.39 6.86007 11.1C6.94007 11.41 7.56007 11.7 8.14007 11.16V9.81001Z"/><path d="M12.3601 12V11.75C13.0201 11.67 12.9201 11.71 12.9201 9.58C12.9201 8.77 12.3701 8.02 11.1401 9.01C11.1401 11.86 10.9901 11.65 11.7101 11.75V12H9.81006V11.75C10.4801 11.64 10.4601 11.77 10.4601 10.24C10.4601 8.58 10.4801 8.68 9.91006 8.58V8.35C9.91006 8.35 10.6001 8.25 11.1401 8V8.7C11.9301 8.11 12.2101 8.03 12.4701 8.03C13.1801 8.03 13.6201 8.53 13.6201 9.4C13.6201 12 13.5301 11.6 14.1801 11.75V12H12.3601Z"/><path d="M17.3101 12C17.1201 11.99 16.8201 11.92 16.7001 11.45C16.7001 11.45 15.9301 12 15.6601 12C15.0501 12 14.6101 11.49 14.6101 10.94C14.6101 10.52 14.8401 10.24 15.3201 10.08C15.8501 9.90001 16.5001 9.67001 16.6901 9.52001V9.35001C16.7001 8.56001 16.0101 8.09001 15.5201 8.58001C15.4101 8.69001 15.3701 8.89001 15.2901 9.14001C15.1901 9.42001 14.8901 9.40001 14.6901 9.09001C14.5701 8.91001 14.7701 8.73001 14.9501 8.61001C15.2001 8.43001 15.7001 8.11001 16.1901 8.01001C17.0601 8.01001 17.3601 8.68001 17.3601 9.25001V10.92C17.3601 11.32 17.5101 11.58 17.9701 11.34L18.0601 11.58L17.3301 12.01L17.3101 12ZM16.6801 9.81001C15.5201 10.34 15.2201 10.39 15.4001 11.1C15.4801 11.41 16.1001 11.7 16.6801 11.16V9.81001Z"/><path d="M20.3801 12H18.3501V11.75C19.0401 11.65 18.9501 11.72 18.9501 10.21C18.9501 8.56 19.0601 8.7 18.4201 8.58V8.36C18.4201 8.36 19.1501 8.24 19.6601 8V8.97C19.9701 8.51 20.3401 8.03 20.7801 8.03C21.1101 8.03 21.5101 8.35 21.1601 8.78C20.9501 9.03 20.8401 8.98 20.7601 8.92C20.6301 8.79 20.2201 8.31 19.6601 9.42C19.6301 11.76 19.5401 11.68 20.3801 11.75V12Z"/><path d="M26 11.69C25.52 11.74 24.66 12 24.66 12V11.33C24.19 11.72 23.8 12 23.32 12C22.74 12 22.2299 11.65 22.2299 10.69C22.2299 8.26998 22.33 8.49998 21.7 8.37998V8.14998C22.08 8.12998 22.95 7.98998 22.95 7.98998C22.91 8.26998 22.92 10.16 22.92 10.45C22.92 11.85 24.25 11.46 24.66 11.02C24.66 8.30998 24.8299 8.48998 23.9799 8.36998V8.13998C24.5399 8.10998 25.35 7.97998 25.35 7.97998C25.35 11.65 25.17 11.4 26 11.43"/></svg>