<svg width="21" height="21" fill="#fff" xmlns="http://www.w3.org/2000/svg"><path d="M6.86255 16.106C6.86255 16.189 6.76255 16.255 6.64755 16.255C6.51155 16.267 6.41555 16.201 6.41555 16.106C6.41555 16.011 6.51555 15.957 6.63055 15.957C6.74555 15.957 6.86255 16.011 6.86255 16.106ZM5.57655 15.92C5.54755 16.003 5.63055 16.098 5.75455 16.12C5.79967 16.1419 5.85154 16.1456 5.89928 16.1301C5.94701 16.1146 5.9869 16.0812 6.01055 16.037C6.03555 15.954 5.95655 15.859 5.83255 15.822C5.78518 15.8054 5.73346 15.8061 5.68658 15.824C5.6397 15.842 5.60071 15.876 5.57655 15.92ZM7.40155 15.85C7.28155 15.879 7.20155 15.958 7.21155 16.05C7.22155 16.142 7.33155 16.186 7.45555 16.158C7.57955 16.13 7.65555 16.05 7.64555 15.968C7.63555 15.886 7.52455 15.84 7.40155 15.85ZM10.1255 0.00298731C8.79123 -0.0250788 7.46497 0.216474 6.22622 0.713174C4.98747 1.20987 3.86173 1.9515 2.91643 2.89363C1.97112 3.83576 1.22571 4.959 0.724848 6.19607C0.223983 7.43314 -0.0220295 8.75858 0.00154771 10.093C-0.0158182 12.2689 0.651839 14.3951 1.90995 16.1704C3.16807 17.9458 4.95286 19.2803 7.01155 19.985C7.54055 20.085 7.72655 19.753 7.72655 19.485C7.72655 19.217 7.71455 17.814 7.71455 16.946C7.71455 16.946 4.81955 17.566 4.21455 15.714C4.21455 15.714 3.74355 14.514 3.06455 14.2C3.06455 14.2 2.11755 13.551 3.13055 13.563C3.46101 13.6069 3.77703 13.7258 4.05438 13.9108C4.33172 14.0958 4.56303 14.3418 4.73055 14.63C4.86862 14.8878 5.05701 15.1153 5.28458 15.299C5.51215 15.4826 5.77426 15.6188 6.0554 15.6994C6.33653 15.7799 6.63097 15.8033 6.92129 15.768C7.2116 15.7327 7.49189 15.6395 7.74555 15.494C7.79768 14.9681 8.02933 14.4762 8.40155 14.101C6.08955 13.845 3.75755 13.51 3.75755 9.53099C3.73449 9.07853 3.80981 8.62646 3.9783 8.20591C4.14679 7.78537 4.40446 7.40635 4.73355 7.09499C4.42005 6.17799 4.45854 5.1772 4.84155 4.28699C5.70155 4.01799 7.69355 5.40399 7.69355 5.40399C9.39317 4.93535 11.1879 4.93535 12.8875 5.40399C12.8875 5.40399 14.8765 4.01399 15.7415 4.28699C16.1247 5.17718 16.1631 6.178 15.8495 7.09499C16.1909 7.40141 16.4627 7.77733 16.6467 8.19749C16.8308 8.61765 16.9228 9.07233 16.9165 9.53099C16.9165 13.522 14.4805 13.84 12.1685 14.101C12.4166 14.3515 12.6076 14.6527 12.7285 14.9839C12.8493 15.3151 12.8971 15.6686 12.8685 16.02C12.8685 17.414 12.8565 19.138 12.8565 19.477C12.8565 19.746 13.0465 20.077 13.5715 19.977C15.6238 19.2734 17.4007 17.9381 18.6474 16.1625C19.8941 14.3869 20.5467 12.2623 20.5115 10.093C20.5053 8.74464 20.2302 7.41108 19.7023 6.17034C19.1745 4.9296 18.4044 3.8066 17.4373 2.86705C16.4702 1.92749 15.3254 1.19026 14.0699 0.698482C12.8145 0.206704 11.4735 -0.0297389 10.1255 0.00298731ZM4.02155 14.266C3.96755 14.307 3.98055 14.402 4.05055 14.481C4.12055 14.56 4.21155 14.581 4.26555 14.522C4.31955 14.463 4.30655 14.386 4.23655 14.307C4.16655 14.228 4.07555 14.212 4.02155 14.266ZM3.57455 13.931C3.54555 13.985 3.58655 14.051 3.67455 14.092C3.68791 14.1024 3.70327 14.1099 3.71967 14.1141C3.73608 14.1183 3.75317 14.119 3.76988 14.1163C3.78658 14.1136 3.80255 14.1075 3.81678 14.0983C3.831 14.0891 3.84318 14.0771 3.85255 14.063C3.88155 14.009 3.84055 13.943 3.75255 13.902C3.66955 13.877 3.60155 13.89 3.57455 13.931ZM4.91455 15.403C4.84855 15.457 4.87355 15.581 4.96855 15.659C5.06855 15.759 5.18355 15.767 5.23755 15.7C5.29155 15.633 5.26655 15.522 5.18355 15.444C5.09255 15.35 4.96855 15.34 4.91455 15.403ZM4.44355 14.795C4.37755 14.836 4.37755 14.944 4.44355 15.039C4.50955 15.134 4.62155 15.175 4.67555 15.139C4.70766 15.1041 4.72549 15.0584 4.72549 15.011C4.72549 14.9636 4.70766 14.9179 4.67555 14.883C4.61655 14.783 4.50955 14.74 4.44355 14.795Z"/></svg>