<svg viewBox="0 0 21 20" fill="#fff" xmlns="http://www.w3.org/2000/svg"><path d="M7.02551 16.1034C7.02551 16.1864 6.92313 16.2524 6.8054 16.2524C6.66617 16.2644 6.56789 16.1984 6.56789 16.1034C6.56789 16.0084 6.67027 15.9544 6.788 15.9544C6.90573 15.9544 7.02551 16.0084 7.02551 16.1034ZM5.70897 15.9174C5.67928 16.0004 5.76425 16.0954 5.8912 16.1174C5.93739 16.1394 5.9905 16.143 6.03937 16.1275C6.08823 16.112 6.12906 16.0787 6.15328 16.0344C6.17887 15.9514 6.09799 15.8564 5.97105 15.8195C5.92256 15.8028 5.86961 15.8036 5.82161 15.8215C5.77362 15.8395 5.73371 15.8734 5.70897 15.9174ZM7.57731 15.8474C7.45446 15.8764 7.37256 15.9554 7.3828 16.0474C7.39303 16.1394 7.50565 16.1834 7.63259 16.1554C7.75953 16.1274 7.83734 16.0474 7.8271 15.9654C7.81686 15.8834 7.70323 15.8374 7.57731 15.8474ZM10.366 0.00298683C8.99998 -0.0250747 7.64223 0.216439 6.37407 0.71306C5.10591 1.20968 3.95343 1.95119 2.98568 2.89317C2.01793 3.83514 1.25482 4.95821 0.74206 6.19508C0.229302 7.43195 -0.0225527 8.75717 0.00158447 10.0914C-0.0161938 12.2669 0.667317 14.3928 1.95531 16.1678C3.2433 17.9429 5.07048 19.2772 7.17805 19.9818C7.71961 20.0818 7.91003 19.7498 7.91003 19.4819C7.91003 19.2139 7.89774 17.8111 7.89774 16.9433C7.89774 16.9433 4.93399 17.5632 4.31463 15.7115C4.31463 15.7115 3.83244 14.5117 3.13732 14.1977C3.13732 14.1977 2.16783 13.5488 3.20489 13.5608C3.54319 13.6047 3.86672 13.7236 4.15065 13.9086C4.43459 14.0935 4.67138 14.3395 4.84288 14.6276C4.98423 14.8854 5.1771 15.1129 5.41007 15.2965C5.64304 15.4802 5.91138 15.6163 6.19919 15.6969C6.487 15.7774 6.78843 15.8007 7.08564 15.7655C7.38285 15.7302 7.66979 15.637 7.92948 15.4915C7.98285 14.9657 8.22 14.4738 8.60105 14.0987C6.23415 13.8428 3.84678 13.5078 3.84678 9.52946C3.82317 9.07708 3.90028 8.62507 4.07277 8.2046C4.24527 7.78412 4.50905 7.40517 4.84595 7.09385C4.52501 6.177 4.56441 5.17637 4.95652 4.2863C5.83694 4.01734 7.87624 5.40312 7.87624 5.40312C9.61622 4.93455 11.4536 4.93455 13.1936 5.40312C13.1936 5.40312 15.2298 4.01334 16.1154 4.2863C16.5076 5.17635 16.547 6.17701 16.2259 7.09385C16.5754 7.40022 16.8536 7.77608 17.042 8.19617C17.2304 8.61627 17.3246 9.07088 17.3183 9.52946C17.3183 13.5198 14.8244 13.8378 12.4575 14.0987C12.7115 14.3492 12.907 14.6503 13.0307 14.9815C13.1544 15.3127 13.2033 15.6661 13.1741 16.0174C13.1741 17.4112 13.1618 19.1349 13.1618 19.4739C13.1618 19.7428 13.3564 20.0738 13.8938 19.9738C15.9948 19.2703 17.8139 17.9352 19.0902 16.1599C20.3665 14.3846 21.0346 12.2603 20.9986 10.0914C20.9922 8.74324 20.7106 7.4099 20.1702 6.16935C19.6298 4.92881 18.8415 3.80599 17.8514 2.86659C16.8613 1.92718 15.6893 1.19007 14.4041 0.69837C13.1188 0.206671 11.746 -0.0297341 10.366 0.00298683ZM4.11704 14.2637C4.06176 14.3047 4.07507 14.3997 4.14673 14.4787C4.2184 14.5577 4.31156 14.5786 4.36684 14.5197C4.42212 14.4607 4.40881 14.3837 4.33715 14.3047C4.26549 14.2257 4.17233 14.2097 4.11704 14.2637ZM3.65943 13.9288C3.62974 13.9827 3.67172 14.0487 3.76181 14.0897C3.77548 14.1001 3.79121 14.1077 3.808 14.1118C3.82479 14.116 3.84229 14.1168 3.8594 14.1141C3.8765 14.1113 3.89285 14.1052 3.90741 14.096C3.92197 14.0868 3.93444 14.0748 3.94403 14.0607C3.97372 14.0067 3.93175 13.9408 3.84166 13.8998C3.75669 13.8748 3.68707 13.8878 3.65943 13.9288ZM5.03125 15.4005C4.96368 15.4545 4.98928 15.5785 5.08653 15.6565C5.18891 15.7565 5.30664 15.7645 5.36192 15.6975C5.4172 15.6305 5.39161 15.5195 5.30664 15.4415C5.21348 15.3475 5.08653 15.3375 5.03125 15.4005ZM4.54907 14.7926C4.4815 14.8336 4.4815 14.9416 4.54907 15.0366C4.61663 15.1316 4.73129 15.1726 4.78657 15.1366C4.81945 15.1017 4.8377 15.056 4.8377 15.0086C4.8377 14.9612 4.81945 14.9155 4.78657 14.8806C4.72617 14.7806 4.61663 14.7376 4.54907 14.7926Z"/></svg>