<svg width="20" height="20" fill="#fff" xmlns="http://www.w3.org/2000/svg"><path d="M5.833 20C4.28737 19.9955 2.80633 19.3795 1.7134 18.2866C0.620472 17.1937 0.00448508 15.7126 0 14.167L0 5.833C0.00474745 4.28745 0.620818 2.80656 1.71369 1.71369C2.80656 0.620818 4.28745 0.00474745 5.833 0L14.167 0C15.7126 0.00448508 17.1937 0.620472 18.2866 1.7134C19.3795 2.80633 19.9955 4.28737 20 5.833V14.167C19.9955 15.7126 19.3795 17.1937 18.2866 18.2866C17.1937 19.3795 15.7126 19.9955 14.167 20H5.833ZM2.891 2.891C2.50356 3.27682 2.19603 3.73527 1.986 4.2401C1.77596 4.74493 1.66756 5.28622 1.667 5.833V14.167C1.67043 15.2708 2.11045 16.3285 2.89098 17.109C3.67152 17.8896 4.72916 18.3296 5.833 18.333H14.167C15.2708 18.3296 16.3285 17.8896 17.109 17.109C17.8896 16.3285 18.3296 15.2708 18.333 14.167V5.833C18.3296 4.72916 17.8896 3.67152 17.109 2.89098C16.3285 2.11045 15.2708 1.67043 14.167 1.667H5.833C5.28598 1.66591 4.74419 1.77356 4.23914 1.98369C3.73408 2.19381 3.27582 2.50223 2.891 2.891ZM5 10C5 9.01109 5.29324 8.04439 5.84265 7.22215C6.39206 6.3999 7.17295 5.75904 8.08658 5.3806C9.00021 5.00216 10.0055 4.90315 10.9755 5.09607C11.9454 5.289 12.8363 5.7652 13.5355 6.46447C14.2348 7.16373 14.711 8.05464 14.9039 9.02455C15.0969 9.99445 14.9978 10.9998 14.6194 11.9134C14.241 12.827 13.6001 13.6079 12.7779 14.1573C11.9556 14.7068 10.9889 15 10 15C8.67392 15 7.40215 14.4732 6.46447 13.5355C5.52678 12.5979 5 11.3261 5 10ZM6.666 10C6.666 10.6594 6.86154 11.304 7.22788 11.8523C7.59423 12.4005 8.11492 12.8279 8.72413 13.0802C9.33334 13.3326 10.0037 13.3986 10.6504 13.2699C11.2972 13.1413 11.8912 12.8238 12.3575 12.3575C12.8238 11.8912 13.1413 11.2972 13.2699 10.6504C13.3986 10.0037 13.3326 9.33334 13.0802 8.72413C12.8279 8.11492 12.4005 7.59423 11.8523 7.22788C11.304 6.86154 10.6594 6.666 10 6.666C9.11601 6.66679 8.26846 7.01831 7.64338 7.64338C7.01831 8.26846 6.66679 9.11601 6.666 10ZM14.166 4.584C14.166 4.33677 14.2393 4.0951 14.3767 3.88954C14.514 3.68398 14.7092 3.52376 14.9376 3.42915C15.1661 3.33454 15.4174 3.30979 15.6599 3.35802C15.9023 3.40625 16.1251 3.5253 16.2999 3.70012C16.4747 3.87493 16.5937 4.09766 16.642 4.34014C16.6902 4.58261 16.6655 4.83395 16.5708 5.06235C16.4762 5.29076 16.316 5.48599 16.1105 5.62334C15.9049 5.76069 15.6632 5.834 15.416 5.834C15.2517 5.8344 15.089 5.80233 14.9372 5.73966C14.7853 5.67698 14.6474 5.58492 14.5312 5.46877C14.4151 5.35261 14.323 5.21466 14.2603 5.06282C14.1977 4.91099 14.1656 4.74826 14.166 4.584Z"/></svg>