<svg width="25" height="20" fill="#fff" xmlns="http://www.w3.org/2000/svg"><path d="M22.094 4.98288C22.11 5.20188 22.11 5.42088 22.11 5.63888C22.1232 7.52833 21.7607 9.40157 21.0437 11.1497C20.3267 12.8979 19.2695 14.4862 17.9334 15.8223C16.5973 17.1584 15.009 18.2156 13.2609 18.9326C11.5127 19.6496 9.63946 20.012 7.75 19.9989C5.00232 20.0059 2.31112 19.219 0 17.7329C0.404776 17.7773 0.811805 17.798 1.219 17.7949C3.4906 17.8008 5.69797 17.0413 7.485 15.6389C6.43185 15.6197 5.41097 15.2721 4.56494 14.6447C3.71892 14.0172 3.08999 13.1411 2.766 12.1389C3.08126 12.1887 3.39983 12.2148 3.719 12.2169C4.16713 12.2155 4.61331 12.1577 5.047 12.0449C3.90437 11.8137 2.87698 11.1942 2.13927 10.2915C1.40156 9.38883 0.99902 8.25865 1 7.09288V7.03088C1.69922 7.42124 2.48079 7.64087 3.281 7.67188C2.20873 6.95736 1.44987 5.86027 1.15954 4.60489C0.869203 3.3495 1.06933 2.03063 1.719 0.917876C2.9864 2.47864 4.56772 3.75558 6.36039 4.66587C8.15307 5.57616 10.1171 6.09948 12.125 6.20188C12.044 5.82181 12.0022 5.43446 12 5.04588C12.0012 4.03378 12.3064 3.04538 12.876 2.20878C13.4456 1.37218 14.2534 0.725953 15.1946 0.353845C16.1358 -0.0182643 17.1671 -0.0990959 18.1548 0.121826C19.1424 0.342748 20.041 0.855238 20.734 1.59288C21.8632 1.3748 22.9459 0.962339 23.934 0.373876C23.5576 1.54011 22.7686 2.52894 21.715 3.15488C22.7172 3.04084 23.6967 2.7776 24.621 2.37388C23.9301 3.37969 23.0744 4.26174 22.09 4.98288H22.094Z"/></svg>